#!OML:ASF F:\VICON\USERDATA\INSTALL\rory3\rory3.ASF
:FULLY-SPECIFIED
:DEGREES
36
root 0.1559242072818482 17.84349181665334 10.006863556516596 0.2823218785132251 -0.6922111123283231 -2.053939417331871
lfemur -12.340038394906154 -1.2404074869514692 -20.232048088648487
ltibia 42.49700891919334
lfoot -2.5746980261509345 -5.2151393605423015
ltoes -7.240749184992653
rfemur -14.823711623961708 3.0399305705054998 27.140462741800143
rtibia 48.632910456160374
rfoot -2.2694456194540353 -6.821069296190444
rtoes 3.3637184528787634
lowerback 12.432085229539313 0.5428850448150804 1.2200239051492696
upperback -0.24923211396687475 1.0027156629688196 1.5320603213175483
thorax -7.1127088310723074 0.4690671980519793 0.7818582066571003
lowerneck -17.69705591274094 -3.4541182097455505 -2.0470272649790995
upperneck 17.47899917868996 -4.535100870785827 1.904873405054879
head 8.485546757481037 -2.097370175206503 0.40510513233420525
lclavicle -7.854261247026558e-16 -6.741282353614521e-16
lhumerus -39.0605089020423 -2.5999954034975468 86.95332471049173
lradius 61.479854139102734
lwrist 16.871965156650486
lhand -27.929624906039567 13.387201496103128
lfingers 7.125020000000057
lthumb -1.3177529625069193 43.34026053637243
rclavicle -7.854261247026558e-16 -6.741282353614521e-16
rhumerus -37.54047785491295 -6.519231324035869 -85.93481420064104
rradius 62.076080987300735
rwrist -4.249344179729716
rhand -17.984327286654864 29.73669371944105
rfingers 7.125020000000057
rthumb 8.28519806363268 -0.07434982894481063
37
root 0.15569917234642366 17.843349132154614 9.999197267582879 0.28114946909037364 -0.6934507380710134 -2.055092018411568
lfemur -12.346030743947095 -1.2417061849785371 -20.234262834700445
ltibia 42.488600932950064
lfoot -2.5793174265141747 -5.217740968015374
ltoes -7.243889812779361
rfemur -14.829740221355188 3.038528578063665 27.138308571192404
rtibia 48.62402333687158
rfoot -2.2742061680083943 -6.822795991191875
rtoes 3.360084543030339
lowerback 12.431140898118334 0.5423875359060576 1.2187232718312744
upperback -0.24950678106717916 1.0019177201629021 1.5316947467145092
thorax -7.113388991461927 0.46871717085833675 0.7810296955951445
lowerneck -17.697759599154164 -3.454496495980584 -2.0472337997840944
upperneck 17.477248696730943 -4.535671820887939 1.9042425704406223
head 8.485056922614405 -2.0976096420741204 0.4049043750764457
lclavicle -7.925691212521726e-16 -6.796590782272365e-16
lhumerus -39.06523863206146 -2.602950270396622 86.95089330177902
lradius 61.46580520075768
lwrist 16.86723517753017
lhand -27.93068727847009 13.383594511063675
lfingers 7.125020000000057
lthumb -1.31877884525559 43.3366529960503
rclavicle -7.925691212521726e-16 -6.796590782272365e-16
rhumerus -37.54484738979516 -6.524787048734633 -85.93839959984265
rradius 62.06225034125309
rwrist -4.253339497069004
rhand -17.98490217193511 29.733737100273345
rfingers 7.125020000000057
rthumb 8.28464325494608 -0.07730545958839008
38
root 0.15477730339501933 17.842764616648275 9.96779186056394 0.2763466243977408 -0.6985289384019618 -2.059813717052373
lfemur -12.370578756976277 -1.2470263784238143 -20.243335673176357
ltibia 42.45415711894005
lfoot -2.598241073906715 -5.228398607233226
ltoes -7.256755580661236
rfemur -14.854436727909077 3.032785232925751 27.129483883614206
rtibia 48.587616725941096
rfoot -2.2937080373320935 -6.829869499611184
rtoes 3.3451980159444656
lowerback 12.427272388479185 0.5403494611715285 1.213395150352003
upperback -0.2506319711238485 0.9986489001622023 1.5301971486845505
thorax -7.116175308812977 0.4672832637125083 0.7776356509217196
lowerneck -17.700642292255367 -3.4560461679644625 -2.04807988185464
upperneck 17.47007774362996 -4.538010751823017 1.9016583190520229
head 8.483050285049387 -2.098590632291173 0.40408196107060057
lclavicle -8.218308300022626e-16 -7.02316503855147e-16
lhumerus -39.084614251428995 -2.615055057791748 86.94093289187117
lradius 61.40825289210805
lwrist 16.847858537704955
lhand -27.935039350101455 13.36881828305366
lfingers 7.125020000000057
lthumb -1.3229814347424034 43.32187449329186
rclavicle -8.218308300022626e-16 -7.02316503855147e-16
rhumerus -37.56274744843443 -6.547546404266158 -85.9530874001885
rradius 62.00559227993859
rwrist -4.269706551362814
rhand -17.987257223560675 29.72162513460591
rfingers 7.125020000000057
rthumb 8.282370448276382 -0.08941337570814709
39
root 0.15317159058090896 17.84174650660439 9.913089872384555 0.26798102182983324 -0.7073741558611261 -2.068037979297412
lfemur -12.413336525335717 -1.2562930998765907 -20.259138757745948
ltibia 42.394162828603605
lfoot -2.6312023132039277 -5.246962100270062
ltoes -7.279165195737026
rfemur -14.89745314252737 3.0227814651778977 27.11411302867517
rtibia 48.52420363278902
rfoot -2.32767642451388 -6.842190147890203
rtoes 3.3192686392548896
lowerback 12.420534212201929 0.5367995393389702 1.2041146198369344
upperback -0.252591828964327 0.9929552642564174 1.5275886300405197
thorax -7.1210285208318265 0.46478568195233105 0.7717238984806822
lowerneck -17.70566337170999 -3.4587453891047244 -2.0495535889584473
upperneck 17.457587366048536 -4.542084705466918 1.8971570658497803
head 8.479555120528971 -2.100299322620356 0.4026494790397462
lclavicle -8.727989211080624e-16 -7.4178124405500515e-16
lhumerus -39.118362736235206 -2.6361391958385134 86.92358383396171
lradius 61.30800818884567
lwrist 16.814108275463933
lhand -27.942619795430225 13.343081025470838
lfingers 7.125020000000057
lthumb -1.3303015118326904 43.2961332735486
rclavicle -8.727989211080624e-16 -7.4178124405500515e-16
rhumerus -37.593925799203944 -6.587188686135173 -85.9786706343244
rradius 61.906905178114904
rwrist -4.298214712711317
rhand -17.99135925624905 29.700528493432962
rfingers 7.125020000000057
rthumb 8.278411669983688 -0.11050296337247849
